# xmcd
#
# Track frame offsets:
#	150
#	40771
#	60256
#	78314
#	125936
#
# Disc length: 2117 seconds
#
# Revision: 2
# Processed by: cddbd v1.5.2PL0 Copyright (c) Steve Scherf et al.
# Submitted via: EZCDAudioConverter 7.0.6.1
#
DISCID=39084305
DTITLE=McLaughlin, Surman, Berger, Martin and Holland - Where Fortune Smiles
DYEAR=1971
DGENRE=
TTITLE0=Glancing Backwards (For Junior)
TTITLE1=Earthbound Hearts
TTITLE2=Where Fortune Smiles
TTITLE3=New Place, Old Place
TTITLE4=Hope
EXTD=
EXTT0=
EXTT1=
EXTT2=
EXTT3=
EXTT4=
PLAYORDER=
